<svg width="113" height="55" viewBox="0 0 113 55" fill="none" xmlns="http://www.w3.org/2000/svg">
<rect y="9" width="113" height="39" rx="19.5" fill="black"/>
<path d="M21.2576 43.509C18.7693 43.509 16.6062 43.099 14.7683 42.279C12.9303 41.459 11.4459 40.3421 10.3148 38.9283L14.0048 34.8566C15.0793 36.0441 16.2528 36.9207 17.5252 37.4862C18.8259 38.0517 20.1407 38.3345 21.4697 38.3345C22.9966 38.3345 24.1559 37.9952 24.9476 37.3166C25.7393 36.6379 26.1352 35.6624 26.1352 34.39C26.1352 33.3438 25.8241 32.5521 25.2021 32.0148C24.6083 31.4776 23.5903 31.0959 22.1483 30.8697L19.0521 30.3607C16.3941 29.9083 14.4714 28.9328 13.2838 27.4341C12.0962 25.9072 11.5024 24.0552 11.5024 21.8779C11.5024 19.0221 12.4355 16.8166 14.3017 15.2614C16.1679 13.6779 18.7834 12.8862 22.1483 12.8862C24.4386 12.8862 26.4321 13.2397 28.1286 13.9466C29.8252 14.6534 31.1966 15.6148 32.2428 16.8307L28.6376 20.86C27.8459 19.9834 26.9128 19.3048 25.8383 18.8241C24.7638 18.3152 23.5479 18.0607 22.1907 18.0607C19.3348 18.0607 17.9069 19.2341 17.9069 21.581C17.9069 22.599 18.2179 23.3624 18.84 23.8714C19.4903 24.3803 20.5366 24.7621 21.9786 25.0166L25.0748 25.5679C27.4783 25.9921 29.3303 26.8969 30.631 28.2824C31.9317 29.6679 32.5821 31.5341 32.5821 33.881C32.5821 35.2666 32.3417 36.5531 31.861 37.7407C31.3803 38.9 30.6593 39.9179 29.6979 40.7945C28.7366 41.6428 27.549 42.3072 26.1352 42.7879C24.7497 43.2686 23.1238 43.509 21.2576 43.509ZM45.6714 18.6121V43H39.3093V18.6121H30.7841V13.3952H54.1965V18.6121H45.6714ZM68.9824 43L67.1162 35.8745H59.0151L57.1913 43H50.7444L58.7607 13.3952H67.7524L75.7686 43H68.9824ZM63.2565 19.5452H62.9172L60.0331 30.7424H66.1407L63.2565 19.5452ZM80.7993 43H74.522V13.3952H85.9737C87.4158 13.3952 88.7024 13.6214 89.8334 14.0738C90.9644 14.4979 91.9117 15.12 92.6751 15.94C93.4668 16.76 94.0606 17.7497 94.4565 18.909C94.8524 20.0683 95.0503 21.369 95.0503 22.811C95.0503 24.9034 94.5979 26.699 93.6931 28.1976C92.7882 29.6962 91.5017 30.6859 89.8334 31.1666L95.6441 43H88.6882L83.7258 32.0148H80.7993V43ZM84.4468 27.0948C85.9455 27.0948 86.9775 26.8121 87.5431 26.2466C88.1368 25.681 88.4337 24.7479 88.4337 23.4472V22.1748C88.4337 20.8741 88.1368 19.941 87.5431 19.3755C86.9775 18.81 85.9455 18.5272 84.4468 18.5272H80.7993V27.0948H84.4468Z" fill="#1BFF07"/>
</svg>
